<?xml version="1.0" encoding="UTF-8"?> <svg xmlns="http://www.w3.org/2000/svg" id="Capa_1" version="1.1" viewBox="0 0 926 542"><defs><style> .st0 { font-family: Mont-HeavyDEMO, Mont; font-size: 50.1px; font-weight: 800; } .st0, .st1 { fill: #fff; } </style></defs><path class="st1" d="M390.4,124.4V15.3h61.2v316h-58.3v-31.3c-2.1,2.3-3.1,3.1-3.8,4.2-29,46.3-94.9,43-126.9,12.6-21.7-20.6-33.7-45.7-36.9-75.2-3.3-29.7-1.4-59,9.9-87,12.2-30.3,32.6-52.5,65.4-60.1,35.2-8.2,65.8-.7,89.4,29.9ZM287.4,216.5c-.7.1-1.3.3-2,.4,3,13.5,4.8,27.4,9.2,40.4,6.3,18.4,19.9,29.1,40,30.3,21.4,1.3,37.8-6.6,48-26.1,9.6-18.6,10.6-38.5,8.7-58.8-1.2-12.6-4.3-24.8-11.5-35.5-10.6-15.7-25.5-23.1-44.4-22.1-18.9,1.1-32,10.7-39.7,28-6.2,13.8-8.6,28.3-8.3,43.4Z"></path><path class="st1" d="M216.1,168.4c-19.2,0-37.9,0-56.6-.2-1.5,0-3.7-2.3-4.2-3.9-5.5-18-14.6-25.7-33.5-26.4-8.6-.4-17.3.6-25.9,1.5-3,.3-6.1,1.9-8.8,3.5-6.5,3.9-10.4,9.4-9.7,17.5.7,8.2,5.7,13,13,15,16.9,4.7,34,8.7,50.9,13.5,13.8,3.9,27.9,7.3,41,12.9,24,10.4,39.9,27.9,41,55.7,1.2,30.2-11.3,53.1-37.4,68.3-14.5,8.4-30.6,11.8-47.1,13.1-25.2,2.1-50.3,1.7-74.6-6.3-32.9-10.7-54.7-38.9-55.1-70.9,0-1.1.1-2.3.2-4.4h61.1c.4,1.6.9,2.8,1.1,4.1,2.2,17.8,13.2,26.8,30.1,29.6,15.5,2.6,31,3.1,46-2.3,9.9-3.6,14.3-9.9,13.9-18.8-.4-9-5.6-14.5-13.7-16.9-17.7-5.2-35.6-9.8-53.3-15-13.3-3.9-27-7.2-39.7-12.6-36.2-15.2-49.1-50-32.3-85.9,8.6-18.4,22.1-32.4,41-39.5,40.7-15.2,81.2-13.5,119.8,7.1,20.2,10.8,33.7,37.1,32.9,61.2Z"></path><path class="st1" d="M164.3,407.5c-.1,29.7-20.9,46.4-49.9,40.2-15.8-3.4-26-17-27.8-37.1-2.8-31.1,21.7-51.8,51.6-43.6,16.1,4.4,26.2,20.1,26.1,40.5ZM144.3,407.4c-1-4.8-1.5-9.6-3.1-14-2.6-7.2-8.4-10.9-15.8-11-7.4,0-13.3,3.7-16,10.8-3.5,9.3-3.5,18.9,0,28.1,2.7,7.1,8.4,10.5,16.1,10.4,7.7,0,13-3.5,15.7-10.9,1.5-4.2,2-8.8,3-13.4Z"></path><path class="st1" d="M312.3,391.6c-5.6,0-10.6.3-15.6-.2-1.7-.2-3.9-1.8-4.8-3.4-4-6.9-15.7-9.6-22.2-4.7-4.3,3.3-3.7,8.7,1.7,10.6,5.3,2,11,3,16.5,4.6,4.2,1.2,8.4,2.3,12.4,3.9,8.8,3.6,14.2,10.1,14.2,19.9,0,10.2-4.4,18.5-13.9,22.5-13.6,5.8-27.7,5.7-41.3,0-9.1-3.9-14-12.5-13.9-23.4,5.4,0,10.8-.2,16.2.2,1.4.1,3.3,2,4,3.5,3.8,7.9,20.5,11.2,26.9,5.2,3.6-3.4,2.7-8.3-2.4-10.4-5.3-2.1-10.9-3.3-16.4-4.9-3.3-1-6.6-1.7-9.9-2.8-8.6-3-15.8-7.4-16.5-17.8-.7-10.6,3.4-19.2,12.6-24.1,14.2-7.5,28.8-6.5,42.5,1.5,6.8,4,9.1,11.1,9.9,19.8Z"></path><path class="st1" d="M320.8,368.3h19.9c0,2.7,0,5.1,0,7.5,0,14.2,0,28.3.2,42.5.1,8,3.3,11.8,9.6,12.9,7.2,1.3,14.4-2.3,16.5-9.1,1.3-4.3,1.7-9,1.8-13.5.2-13.2,0-26.4,0-40.2h19.8v77.2h-18.3c-.3-2.7-.5-5.6-.9-9.3-6.1,6.9-12.7,11.3-21.5,11.5-16.3.4-26.1-7.2-27-23.4-1-18.4-.2-36.9-.2-56.3Z"></path><path class="st1" d="M190.2,446h-19v-77.4h18.1c.3,2.9.5,5.6.9,9.7,7.6-10.5,17.1-13.9,28.6-11.7,12.1,2.4,19.1,8.2,19.8,20.2,1,19.5.3,39.2.3,59.1h-19.8c0-10.2,0-20.2,0-30.2,0-6.6.2-13.3-.1-19.9-.3-6.1-2.4-11.2-9.3-12.6-7.8-1.5-14.4,1.3-17,8.1-1.6,4.2-2.3,8.9-2.4,13.3-.3,13.5-.1,26.9-.1,41.2Z"></path><path class="st1" d="M85.3,418.2c-2.3,18.3-13.8,29.4-31.6,30.7-18.5,1.4-31.8-7.8-36.3-25.4-2.9-11.8-2.8-23.6,1.4-35.1,8.1-22.4,39.7-30.3,57.7-14.6,5.3,4.6,8.3,11.9,8.9,21.7h-18c-3.2-4-5.3-8.4-8.8-10.7-7.5-4.8-17.8-.6-20.2,8.6-1.8,6.9-2,14.5-1.7,21.7.4,10,5.7,15.9,13.2,16.6,8.9.8,12.2-2,15.9-13.5h19.4Z"></path><path class="st1" d="M434.3,383.5c-3.9-.3-6.9-.4-10.3-.7v-13.9c3-.2,6.2-.5,10.1-.7v-21.2h19.3v21.2c4.4.2,8,.4,12.1.6v14c-3.6.2-7.1.4-11.9.7,0,6.6,0,13.1,0,19.6,0,5.7,0,11.4,0,17.1q0,11.1,11.8,12v15.1c-6.7-.3-13.5,0-20.1-1-7.3-1.1-10.8-5.8-10.9-13.6-.2-13.7,0-27.4,0-41.1,0-2.5,0-4.9,0-8.1Z"></path><path class="st1" d="M763.5,188.7c0,15.4-12,27.3-27.4,27.2-14.9,0-27-12.1-27.1-27.1,0-15.1,12.5-27.5,27.6-27.4,14.9.1,26.9,12.2,26.9,27.2Z"></path><path class="st1" d="M763.5,32.7c-.2,14.9-12.5,26.9-27.4,26.8-15.1-.2-27.4-12.8-27.1-27.9.3-15.2,12.7-26.9,28.2-26.6,14.9.3,26.4,12.5,26.2,27.7Z"></path><path class="st1" d="M763.5,110.4c0,15-11.8,27.2-26.7,27.3-15.2.2-27.7-12-27.7-27.1,0-14.9,12-27.1,26.9-27.3,15.4-.2,27.6,11.8,27.6,27.1Z"></path><path class="st1" d="M888.5,5c15.2,0,27.3,12.2,27.2,27.4-.1,14.8-12.2,26.9-27,27.1-15,.2-27.4-12.2-27.5-27.2,0-15.3,12-27.3,27.3-27.2Z"></path><path class="st1" d="M481.1,110.5c0-15.4,12.1-27.3,27.5-27.2,14.8.1,27,12.4,27,27.2,0,15.1-12.5,27.4-27.7,27.2-15-.1-26.7-12.2-26.7-27.3Z"></path><path class="st1" d="M611.3,110.9c-.1,15-12.1,26.9-27.2,26.8-15.1,0-27.6-12.7-27.3-27.7.3-14.9,12.6-26.8,27.4-26.8,15.3,0,27.2,12.1,27,27.6Z"></path><path class="st1" d="M584,216c-14.9,0-27.1-12.2-27.1-27.1,0-15,12.6-27.5,27.6-27.4,15.2.2,27,12.5,26.8,27.9-.2,15-12.2,26.6-27.3,26.5Z"></path><path class="st1" d="M481.1,31.8c.1-15.4,12.2-27.1,27.7-26.8,14.8.2,26.9,12.6,26.7,27.4-.2,14.8-12.6,27-27.3,27-15.2,0-27.3-12.3-27.1-27.6Z"></path><path class="st1" d="M584.5,5c15.4,0,27,12.1,26.8,27.8-.2,14.9-12.5,26.9-27.4,26.7-14.8-.2-27-12.6-27.1-27.3,0-15.1,12.3-27.3,27.6-27.2Z"></path><path class="st1" d="M633.2,266.9c.1-15,12.1-27,27-27.1,14.9,0,27.7,12.8,27.4,27.7-.3,15.2-12.6,27-28,26.8-15.1-.2-26.5-12.1-26.4-27.4Z"></path><path class="st1" d="M611.3,345.9c-.1,15.2-11.8,26.7-27.1,26.7-15.3,0-27.6-12.3-27.4-27.4.3-14.8,12.7-27,27.3-27,15.1,0,27.2,12.3,27.1,27.7Z"></path><path class="st1" d="M507.8,216c-15.3-.1-27-12.3-26.8-27.8.2-14.9,12.5-26.8,27.4-26.6,14.8.2,27,12.6,27,27.3,0,15.1-12.4,27.3-27.7,27.2Z"></path><path class="st1" d="M508.4,294.3c-15.6,0-27.3-11.7-27.3-27.2,0-15,12-27.1,26.9-27.2,14.9-.2,27.6,12.5,27.6,27.5,0,14.9-12.2,26.9-27.1,27Z"></path><path class="st1" d="M611.3,267.5c-.1,15.4-12.1,27-27.8,26.7-14.9-.2-26.9-12.6-26.7-27.5.2-14.7,12.7-27,27.4-27,15.2,0,27.2,12.3,27.1,27.7Z"></path><path class="st1" d="M508,372.6c-15.5,0-27.1-11.9-27-27.6.2-14.9,12.4-27,27.2-26.9,14.7,0,27.1,12.4,27.2,27.2.1,15.1-12.1,27.3-27.5,27.3Z"></path><path class="st1" d="M633.2,32c0-15.2,11.8-26.9,26.9-27,15.3,0,27.7,12.3,27.5,27.3-.2,14.8-12.5,27.1-27.2,27.2-15.2.1-27.3-12.1-27.2-27.5Z"></path><path class="st1" d="M633.2,110.8c-.1-15.5,11.7-27.5,27.1-27.5,14.9,0,27.1,12,27.3,26.9.2,15-12.3,27.6-27.4,27.6-15.1,0-26.9-11.8-27-26.9Z"></path><path class="st1" d="M660.2,216c-15.1,0-26.9-11.8-27-26.9,0-15.4,12-27.6,27.2-27.5,14.8,0,27.1,12.3,27.2,27.1.2,15-12.2,27.4-27.5,27.4Z"></path><path class="st1" d="M508.5,451c-15.2.2-27.2-11.4-27.4-26.4-.2-15.5,11.4-27.6,26.8-27.9,15.1-.2,27.7,12.1,27.7,27.2,0,14.8-12.1,26.9-27,27.1Z"></path><path class="st1" d="M785.3,109.5c.5-15.3,12.9-26.8,28.4-26.2,14.8.5,26.4,13.3,25.8,28.2-.6,15.3-13.1,26.9-28.5,26.2-14.8-.6-26.3-13.2-25.7-28.2Z"></path><path class="st1" d="M785.3,32.4c-.1-15.1,11.6-27.2,26.5-27.4,15.5-.2,27.6,11.5,27.7,26.9.2,15.2-12.2,27.6-27.3,27.6-14.9,0-26.9-12.1-27-27.1Z"></path><path class="st1" d="M419.9,446h-18.9v-105.4h18.9v105.4Z"></path><text class="st0" transform="translate(16 522.8)"><tspan x="0" y="0">Systems Development Consultants</tspan></text></svg> 